<svg xmlns="http://www.w3.org/2000/svg" viewBox="0 0 64 64" role="img" aria-label="Cvm Turan">
  <defs>
    <linearGradient id="g" x1="8" y1="4" x2="58" y2="62" gradientUnits="userSpaceOnUse">
      <stop stop-color="#ff9b73"/>
      <stop offset="0.55" stop-color="#ff5b4d"/>
      <stop offset="1" stop-color="#9e1f2a"/>
    </linearGradient>
  </defs>
  <rect width="64" height="64" rx="17" fill="url(#g)"/>
  <path d="M18.5 20.5A15 15 0 0 0 14 31.2C14 41 21.2 48 31.1 48c3.1 0 6.1-.8 8.7-2.3l-4.4-6.1a9.1 9.1 0 0 1-4.3 1.1c-5.3 0-9-3.9-9-9.5s3.7-9.5 9-9.5c1.5 0 3 .4 4.3 1.1l4.4-6.1A16.9 16.9 0 0 0 31.1 14c-5 0-9.4 1.6-12.6 4.5Z" fill="#fff"/>
  <path d="M38 16h17v7h-5v25h-8V23h-4v-7Z" fill="#fff" opacity=".92"/>
</svg>
